<svg version="1.0" xmlns="http://www.w3.org/2000/svg" width="600.000000pt" height="581.000000pt" viewBox="0 0 600.000000 581.000000" preserveAspectRatio="xMidYMid meet" style="width: 676.114px; height: auto;"> <g transform="translate(0.000000,581.000000) scale(0.100000,-0.100000)" fill="#000000" stroke="none" class=""> <path d="M4750 5226 c-58 -8 -134 -21 -170 -31 -77 -19 -317 -92 -345 -105 -11 -4 -56 -20 -100 -35 -44 -15 -89 -33 -100 -40 -11 -7 -54 -27 -95 -44 -109 -47 -112 -48 -273 -135 -81 -44 -146 -84 -144 -90 9 -25 80 -6 227 61 155 71 325 133 475 174 56 15 122 23 219 26 157 6 218 -3 311 -48 60 -28 147 -92 145 -104 -1 -4 7 -18 19 -31 12 -13 21 -31 21 -39 0 -8 6 -15 14 -15 9 0 12 -8 8 -25 -3 -17 1 -27 12 -31 11 -4 16 -18 16 -44 0 -22 5 -42 10 -45 12 -8 13 -75 1 -75 -4 0 -9 -41 -10 -92 -1 -51 -7 -98 -13 -106 -6 -7 -11 -29 -10 -48 1 -22 -4 -37 -13 -40 -10 -4 -15 -21 -15 -55 0 -27 -4 -49 -10 -49 -5 0 -10 -15 -10 -34 0 -20 -6 -36 -14 -39 -9 -3 -12 -15 -9 -31 4 -20 1 -26 -12 -26 -13 0 -16 -6 -12 -26 3 -16 0 -28 -9 -31 -8 -3 -14 -15 -14 -28 0 -13 -6 -25 -14 -28 -9 -4 -12 -14 -9 -26 4 -15 1 -21 -11 -21 -12 0 -15 -6 -10 -25 5 -19 2 -25 -11 -25 -12 0 -16 -6 -12 -20 3 -13 0 -20 -9 -20 -8 0 -14 -9 -14 -20 0 -11 -7 -20 -16 -20 -11 0 -14 -6 -9 -20 5 -14 2 -20 -9 -20 -9 0 -16 -9 -16 -20 0 -11 -4 -20 -10 -20 -5 0 -10 -9 -10 -20 0 -11 -4 -20 -10 -20 -5 0 -10 -9 -10 -19 0 -10 -7 -21 -15 -25 -8 -3 -15 -12 -15 -21 0 -8 -4 -15 -10 -15 -5 0 -10 -9 -10 -20 0 -11 -4 -20 -10 -20 -5 0 -10 -9 -10 -20 0 -12 -7 -20 -16 -20 -10 0 -14 -6 -11 -14 3 -8 -1 -17 -9 -20 -8 -3 -14 -12 -14 -21 0 -8 -4 -15 -8 -15 -5 0 -14 -16 -22 -35 -8 -19 -20 -35 -28 -35 -8 0 -12 -6 -8 -15 3 -9 0 -15 -9 -15 -8 0 -15 -5 -15 -11 0 -7 -15 -26 -33 -43 -18 -17 -40 -46 -47 -63 -8 -18 -18 -33 -22 -33 -5 0 -8 -7 -8 -15 0 -8 -7 -15 -15 -15 -8 0 -15 -7 -15 -15 0 -8 -4 -15 -10 -15 -5 0 -10 -6 -10 -13 0 -7 -11 -21 -25 -31 -13 -10 -22 -22 -19 -27 3 -5 -2 -12 -10 -15 -9 -3 -16 -11 -16 -16 0 -6 -12 -21 -27 -34 -16 -13 -25 -24 -20 -24 4 0 -20 -27 -53 -59 -33 -33 -60 -64 -60 -70 0 -6 -4 -11 -8 -11 -5 0 -15 -11 -22 -25 -7 -14 -19 -25 -27 -25 -7 0 -13 -7 -13 -15 0 -8 -4 -15 -10 -15 -5 0 -10 -5 -10 -11 0 -6 -20 -31 -45 -55 -25 -23 -45 -47 -45 -53 0 -6 -5 -11 -10 -11 -14 0 -86 -72 -82 -82 1 -5 -2 -8 -7 -8 -5 0 -95 -85 -200 -190 -105 -104 -195 -190 -199 -190 -4 0 -28 -20 -53 -43 -26 -23 -59 -51 -75 -62 -15 -11 -37 -29 -48 -40 -40 -38 -114 -95 -124 -95 -5 0 -24 -12 -40 -27 -73 -66 -89 -79 -117 -97 -17 -11 -35 -24 -42 -30 -33 -29 -43 -36 -53 -36 -5 0 -10 -3 -10 -7 0 -5 -25 -24 -56 -43 -30 -19 -67 -44 -82 -56 -15 -12 -57 -38 -94 -59 -37 -22 -65 -41 -63 -44 3 -2 -9 -10 -25 -18 -17 -7 -61 -32 -98 -56 -128 -84 -165 -107 -174 -107 -4 0 -50 -23 -100 -52 -51 -28 -122 -68 -158 -88 -152 -84 -532 -215 -697 -240 -43 -7 -87 -14 -98 -16 -133 -22 -160 -22 -300 0 -68 11 -178 56 -220 91 -122 99 -174 262 -140 439 36 193 118 387 270 642 52 86 85 151 85 168 0 31 -17 31 -34 0 -6 -10 -16 -22 -23 -27 -7 -4 -10 -14 -7 -21 3 -7 -2 -16 -10 -19 -9 -4 -16 -12 -16 -19 0 -8 -9 -20 -20 -28 -11 -8 -20 -20 -20 -27 0 -7 -6 -13 -13 -13 -7 0 -19 -16 -27 -35 -8 -19 -17 -35 -22 -35 -4 0 -8 -9 -8 -20 0 -11 -7 -20 -15 -20 -8 0 -15 -7 -15 -15 0 -8 -4 -15 -10 -15 -5 0 -10 -7 -10 -15 0 -8 -4 -15 -10 -15 -5 0 -10 -9 -10 -20 0 -11 -7 -20 -16 -20 -11 0 -14 -6 -9 -20 5 -15 2 -20 -10 -20 -11 0 -15 -5 -11 -15 3 -9 0 -15 -9 -15 -8 0 -15 -7 -15 -15 0 -9 -6 -18 -14 -21 -8 -3 -13 -11 -10 -19 3 -7 -2 -15 -11 -19 -11 -4 -14 -12 -10 -26 5 -14 2 -20 -9 -20 -9 0 -16 -8 -16 -19 0 -10 -7 -21 -15 -25 -9 -3 -12 -12 -8 -22 4 -10 0 -20 -9 -25 -10 -5 -14 -18 -10 -34 3 -18 0 -25 -12 -25 -10 0 -16 -9 -16 -24 0 -14 -5 -28 -10 -31 -5 -3 -10 -14 -10 -25 0 -10 -6 -20 -14 -23 -9 -4 -12 -14 -9 -26 4 -15 1 -21 -12 -21 -13 0 -16 -6 -11 -25 5 -18 2 -25 -9 -25 -10 0 -15 -10 -15 -34 0 -19 -6 -36 -13 -39 -9 -3 -12 -16 -9 -35 2 -16 -1 -33 -7 -36 -6 -4 -11 -24 -11 -45 0 -22 -6 -44 -15 -51 -9 -8 -15 -29 -15 -56 0 -23 -4 -46 -10 -49 -13 -8 -13 -92 0 -100 5 -3 10 -28 10 -56 0 -38 4 -49 16 -49 12 0 14 -7 9 -30 -5 -23 -3 -32 10 -36 9 -4 14 -12 11 -20 -3 -7 2 -18 10 -24 8 -7 14 -18 14 -25 0 -7 21 -34 48 -59 203 -199 655 -185 1222 39 612 241 1217 617 1865 1159 640 535 1236 1222 1632 1881 70 115 191 361 241 490 166 422 163 770 -9 946 -49 50 -162 111 -241 128 -80 18 -208 21 -318 7z m280 -30 c68 -12 155 -44 188 -69 9 -8 8 -13 -5 -24 -13 -11 -9 -10 10 1 24 14 27 15 27 1 0 -8 3 -14 8 -13 11 4 62 -44 57 -52 -3 -5 1 -10 9 -13 8 -3 21 -20 31 -39 16 -32 21 -47 31 -98 3 -14 8 -34 11 -45 4 -11 8 -33 9 -50 1 -16 4 -51 7 -78 4 -34 2 -45 -6 -41 -9 5 -9 4 -1 -5 7 -7 7 -33 1 -79 -4 -37 -9 -77 -11 -89 -1 -13 -5 -26 -9 -29 -3 -3 -3 -12 0 -20 3 -8 1 -14 -3 -14 -5 0 -10 -10 -10 -22 -1 -13 -9 -48 -18 -78 -10 -30 -18 -63 -19 -72 -1 -10 -5 -18 -9 -18 -4 0 -8 -7 -8 -16 0 -8 -4 -13 -9 -10 -5 4 -7 -3 -4 -13 3 -11 -2 -34 -11 -53 -8 -18 -29 -67 -45 -108 -17 -41 -34 -74 -39 -73 -5 1 -8 -9 -6 -23 1 -13 -2 -22 -7 -18 -5 3 -9 -2 -9 -10 0 -8 -6 -21 -12 -28 -7 -7 -15 -22 -16 -33 -2 -11 -7 -22 -10 -25 -4 -3 -14 -14 -22 -24 -13 -18 -13 -19 0 -12 9 4 8 1 -2 -7 -10 -8 -18 -22 -18 -31 0 -9 -5 -16 -11 -16 -6 0 -9 -6 -6 -14 9 -22 -16 -38 -33 -23 -12 10 -12 9 -1 -6 12 -15 11 -20 -5 -38 -11 -12 -18 -23 -17 -25 1 -2 0 -11 -4 -20 -5 -13 -7 -13 -14 -2 -6 9 -9 7 -9 -9 0 -12 -12 -36 -27 -55 -19 -22 -21 -28 -8 -18 15 10 13 6 -5 -15 -32 -38 -42 -45 -54 -38 -5 3 -6 1 -2 -6 4 -6 12 -8 18 -5 6 4 3 -5 -8 -19 -10 -15 -25 -24 -33 -22 -11 4 -11 3 -2 -9 10 -12 8 -18 -13 -31 -14 -10 -26 -22 -26 -29 0 -6 5 -4 10 4 5 8 10 11 10 7 0 -15 -37 -57 -44 -50 -3 3 -6 -4 -6 -16 0 -14 -4 -20 -12 -15 -7 4 -8 3 -4 -5 4 -6 -9 -26 -31 -48 -21 -20 -32 -33 -25 -29 17 10 15 -9 -2 -23 -11 -9 -15 -9 -20 1 -4 9 -5 9 -4 -2 2 -21 -12 -50 -24 -50 -6 0 -7 8 -4 17 4 10 3 14 -1 9 -4 -4 -8 -18 -8 -29 0 -13 -5 -21 -14 -19 -8 2 -11 -3 -8 -12 4 -9 -1 -19 -9 -24 -9 -5 -15 -12 -14 -16 1 -4 -10 -21 -24 -37 -14 -16 -26 -33 -26 -38 0 -18 -52 -66 -69 -63 -12 2 -13 1 -3 -6 13 -9 -9 -41 -78 -111 -13 -14 -24 -30 -22 -34 1 -5 -2 -6 -6 -3 -5 3 -18 -4 -28 -16 -11 -12 -13 -18 -5 -13 9 5 12 3 9 -6 -3 -8 -15 -13 -28 -11 -19 2 -21 0 -10 -13 7 -8 9 -15 4 -15 -5 0 -20 -16 -33 -35 -13 -19 -30 -35 -37 -35 -8 0 -14 -6 -14 -12 -1 -7 -21 -35 -45 -62 -40 -44 -46 -48 -61 -35 -16 12 -17 12 -9 -1 13 -21 15 -41 4 -34 -5 3 -9 1 -9 -4 0 -5 -43 -53 -96 -106 -65 -65 -101 -95 -112 -91 -12 4 -13 3 -2 -10 12 -14 7 -19 -13 -16 -5 1 -6 -2 -3 -7 5 -9 -39 -57 -52 -57 -4 0 -6 -3 -5 -6 4 -11 -77 -80 -87 -74 -5 3 -7 0 -4 -8 3 -8 -5 -21 -19 -30 -13 -9 -48 -39 -77 -67 -42 -41 -55 -48 -66 -39 -12 9 -13 9 -9 -3 9 -23 -47 -74 -77 -69 -4 0 -4 -7 -1 -16 5 -13 2 -15 -11 -10 -13 5 -17 3 -13 -7 4 -10 1 -13 -9 -9 -10 4 -12 0 -7 -13 5 -14 3 -16 -12 -10 -11 4 -16 4 -12 0 9 -10 -44 -54 -56 -47 -6 3 -7 1 -3 -5 3 -5 -9 -20 -28 -32 -19 -11 -36 -26 -38 -32 -3 -8 -11 -7 -28 1 -21 10 -23 10 -8 -1 15 -13 12 -17 -23 -51 -22 -22 -44 -35 -51 -31 -7 4 -8 3 -4 -4 4 -7 3 -12 -2 -12 -8 0 -20 -9 -89 -73 -22 -20 -23 -20 -45 -1 -18 15 -20 15 -9 2 11 -15 11 -20 -2 -33 -17 -17 -32 -20 -22 -6 3 5 1 12 -4 16 -6 3 -8 -5 -6 -17 3 -18 -10 -33 -62 -72 -36 -27 -63 -44 -60 -39 7 12 -30 10 -40 -2 -5 -4 -3 -5 4 -1 18 10 25 -10 8 -24 -8 -7 -15 -9 -15 -6 0 4 -20 -9 -45 -30 -41 -33 -50 -35 -46 -11 1 5 -3 6 -8 2 -6 -3 -7 -13 -4 -22 5 -13 2 -15 -11 -10 -9 4 -15 3 -12 -2 7 -11 -37 -41 -59 -41 -10 0 -13 -5 -9 -12 5 -8 2 -9 -10 -5 -10 4 -15 3 -11 -3 3 -5 -7 -17 -22 -26 -15 -10 -41 -29 -57 -43 -16 -14 -26 -20 -22 -13 7 11 -50 -22 -80 -47 -21 -17 -73 -41 -91 -41 -15 0 -16 -2 -3 -10 12 -8 10 -10 -8 -10 -16 0 -21 -4 -16 -13 4 -6 3 -9 -1 -4 -5 4 -20 -3 -33 -15 -14 -13 -22 -16 -17 -8 4 8 -2 5 -14 -7 -12 -13 -31 -23 -41 -23 -11 0 -20 -4 -20 -8 0 -5 -12 -15 -27 -22 -16 -8 -40 -22 -55 -32 -14 -10 -33 -18 -42 -18 -9 0 -16 -5 -16 -11 0 -5 -4 -7 -10 -4 -5 3 -10 2 -10 -3 0 -10 -50 -35 -57 -28 -3 2 -14 -5 -25 -16 -14 -14 -27 -18 -46 -14 -20 5 -23 4 -12 -3 11 -8 -3 -18 -63 -46 -43 -19 -82 -35 -88 -35 -5 0 -9 -4 -9 -10 0 -5 -3 -9 -7 -8 -5 0 -17 -3 -28 -7 -226 -94 -411 -158 -427 -149 -6 4 -8 3 -5 -3 4 -6 -18 -15 -51 -23 -31 -7 -73 -17 -92 -23 -19 -6 -51 -12 -71 -12 -20 -1 -41 -5 -47 -9 -16 -9 -79 -16 -224 -23 -111 -5 -140 -2 -220 17 -131 31 -210 70 -200 98 2 7 0 12 -5 11 -18 -3 -34 1 -29 9 3 5 -4 15 -15 22 -10 8 -19 20 -19 27 0 7 -4 13 -9 13 -15 0 -58 148 -64 218 -3 34 -2 60 1 58 4 -2 5 21 3 51 -3 55 13 108 30 97 5 -3 5 6 0 19 -9 23 4 90 29 152 7 17 16 39 20 50 5 11 22 49 38 85 58 124 72 159 72 172 0 8 5 19 12 26 7 7 9 12 5 12 -4 0 1 10 12 22 11 11 18 24 16 28 -3 4 7 20 20 34 14 15 23 32 20 37 -6 8 9 13 28 10 5 -1 6 3 2 9 -3 6 -11 7 -17 4 -7 -4 -8 -2 -4 4 4 7 15 12 24 12 13 0 14 2 4 8 -9 7 -8 13 8 27 11 10 20 24 20 32 0 7 5 13 10 13 6 0 10 6 10 14 0 7 7 19 15 26 21 17 19 9 -14 -65 -17 -36 -27 -65 -24 -65 3 0 -1 -8 -9 -17 -8 -10 -23 -40 -33 -68 -10 -27 -22 -54 -27 -59 -4 -6 -8 -27 -8 -48 0 -21 -4 -38 -10 -38 -5 0 -10 -12 -10 -26 0 -14 -3 -23 -8 -21 -4 3 -6 -13 -5 -36 0 -22 -2 -50 -6 -61 -4 -12 -4 -57 1 -101 5 -44 10 -92 10 -107 1 -16 5 -28 11 -28 5 0 6 -7 3 -16 -3 -8 -2 -12 4 -9 6 3 10 -2 10 -11 0 -9 11 -32 26 -51 14 -18 22 -38 18 -45 -4 -7 -3 -8 5 -4 14 9 38 -14 51 -49 5 -14 14 -24 19 -20 14 8 81 -26 74 -38 -3 -5 4 -6 17 -2 16 5 20 4 15 -5 -5 -9 -2 -10 14 -5 13 4 21 2 21 -5 0 -6 6 -10 12 -9 7 2 32 -3 55 -9 48 -14 246 -19 313 -8 25 3 71 9 102 11 32 2 66 8 75 13 10 5 39 12 65 15 26 4 56 10 65 15 10 5 33 16 51 25 19 9 44 17 57 17 13 0 26 4 29 9 3 5 16 7 29 4 18 -4 19 -3 7 6 -12 9 -10 11 13 11 15 0 35 4 45 9 23 13 52 23 77 28 11 2 21 8 23 13 2 6 10 10 19 10 8 0 59 22 112 50 54 27 102 50 107 50 6 0 25 13 44 30 18 16 36 27 40 25 4 -3 13 2 20 10 7 8 19 15 26 15 8 0 14 4 14 10 0 5 3 9 8 8 4 -1 28 8 54 20 26 12 51 22 55 22 5 0 22 12 38 28 16 15 32 26 35 26 10 -3 50 16 50 23 0 14 89 65 101 57 8 -5 9 -3 4 6 -6 10 -4 12 11 6 10 -4 15 -4 11 0 -7 8 42 54 58 54 6 1 23 11 39 24 16 14 36 22 45 19 9 -4 13 -3 9 2 -13 14 38 50 65 46 4 0 7 6 7 14 0 8 7 15 15 15 8 0 15 5 15 10 0 6 6 10 14 10 8 0 21 9 28 19 8 11 26 23 41 26 14 4 29 16 32 26 4 10 12 19 18 19 7 0 28 14 47 30 53 46 58 50 70 50 5 0 10 7 10 16 0 8 5 12 10 9 6 -3 10 -1 10 4 0 6 7 11 15 11 9 0 18 7 21 15 4 8 10 15 15 15 10 0 31 17 96 77 26 23 50 40 55 37 4 -3 8 2 8 11 0 9 5 13 10 10 6 -3 10 -1 10 5 0 7 9 9 23 5 17 -5 19 -4 7 4 -12 9 -13 11 -1 11 8 0 11 3 8 7 -7 7 31 37 48 38 6 1 9 6 8 13 -2 7 4 9 15 5 9 -3 14 -2 9 2 -9 11 21 45 40 45 8 0 12 4 8 9 -3 5 4 13 16 16 11 4 18 9 15 12 -7 7 20 33 35 33 7 0 10 3 6 6 -8 8 68 81 93 89 11 4 18 11 15 16 -4 5 -1 9 6 9 7 0 10 3 7 6 -4 3 8 19 25 35 23 23 33 27 40 17 6 -9 7 -8 3 4 -5 17 58 91 69 80 3 -3 5 2 5 12 0 9 4 15 8 12 4 -2 17 9 27 25 11 16 28 29 38 29 10 0 15 5 12 10 -3 6 -1 10 6 10 7 0 10 3 6 6 -9 9 64 84 76 77 6 -3 7 -1 3 5 -7 12 7 32 77 105 26 27 47 53 47 58 0 5 6 9 13 9 6 0 23 16 36 36 15 22 27 31 31 24 4 -7 10 2 13 20 4 17 11 29 17 25 6 -3 7 0 4 9 -4 11 0 16 10 16 9 0 16 7 16 15 0 8 4 15 9 15 5 0 11 10 15 23 5 19 8 20 17 7 9 -13 10 -13 6 2 -4 10 7 30 29 53 19 20 34 43 34 52 0 9 6 13 14 10 9 -4 13 -1 10 6 -2 7 7 24 21 39 14 15 25 30 25 34 0 4 10 15 22 25 11 11 18 19 14 19 -4 0 -1 6 6 14 29 31 48 57 48 66 0 6 7 13 15 16 8 4 13 9 10 14 -2 4 7 18 20 30 14 13 25 29 25 36 0 6 6 17 14 23 8 7 22 26 31 44 9 18 24 46 34 62 10 17 16 33 14 37 -2 4 3 5 11 2 11 -4 14 0 11 14 -2 11 5 28 16 37 10 10 16 21 14 25 -3 4 2 13 10 20 8 7 12 16 9 21 -3 5 3 9 13 10 10 0 13 3 6 6 -10 3 -10 8 1 19 8 7 22 35 32 61 10 27 24 54 30 60 7 7 15 27 19 45 4 18 13 40 20 48 7 8 20 35 28 60 9 25 25 70 36 100 12 30 21 67 21 82 0 16 4 28 9 28 4 0 11 25 14 56 3 30 10 61 15 67 5 7 9 28 11 47 1 19 5 78 10 130 7 75 5 100 -6 118 -8 12 -12 26 -9 30 3 5 -2 21 -10 36 -7 16 -14 36 -14 46 0 18 -28 80 -36 80 -3 0 -2 -6 1 -12 4 -7 -1 -4 -9 7 -9 11 -25 30 -37 43 -15 15 -17 22 -8 23 8 0 4 4 -9 10 -13 5 -21 13 -17 19 3 6 -1 7 -9 4 -9 -3 -16 -1 -16 5 0 6 -3 10 -7 9 -13 -3 -63 24 -63 34 0 4 -9 8 -20 8 -11 0 -20 4 -20 10 0 5 -6 7 -14 4 -8 -3 -28 2 -45 11 -18 9 -37 13 -43 9 -6 -4 -8 -3 -5 3 4 7 -35 10 -112 9 -69 -1 -117 3 -114 8 4 5 0 6 -7 1 -20 -12 -193 -44 -204 -38 -5 4 -6 1 -1 -7 6 -10 3 -12 -13 -8 -12 4 -22 3 -22 -2 0 -10 -88 -32 -101 -25 -5 4 -9 2 -9 -3 0 -5 -10 -12 -22 -16 -13 -3 -23 -5 -23 -3 0 1 -11 -6 -25 -16 -13 -9 -31 -17 -38 -17 -8 0 -28 -6 -45 -14 -88 -39 -131 -56 -135 -52 -2 3 -24 -6 -49 -19 -24 -14 -49 -25 -56 -25 -7 0 11 12 38 26 50 26 67 32 95 33 13 1 13 2 0 11 -12 8 -11 10 8 10 12 0 22 4 22 9 0 5 12 8 26 5 16 -3 23 -1 19 6 -6 9 10 14 42 13 7 0 11 3 10 7 -2 10 130 80 150 80 9 0 38 11 66 25 28 14 56 24 64 21 7 -3 13 -1 13 5 0 5 6 9 13 8 6 -1 25 3 40 9 16 7 35 12 43 12 8 0 14 5 14 11 0 5 4 8 9 5 5 -4 20 -2 33 3 12 5 25 8 28 8 3 0 16 6 30 14 14 7 35 14 47 14 12 0 25 4 29 8 4 4 18 7 31 7 13 0 23 6 24 13 0 9 2 9 6 -1 3 -9 9 -10 17 -3 6 5 61 17 121 26 60 9 111 18 114 21 9 9 149 3 221 -10z m-4279 -3159 c-10 -9 -11 -8 -5 6 3 10 9 15 12 12 3 -3 0 -11 -7 -18z m-67 -122 c-7 -16 -24 -21 -24 -6 0 8 7 13 27 20 1 1 0 -6 -3 -14z" class=""></path>    <path d="M3371 1787 c-8 -10 -7 -14 2 -14 8 0 14 6 14 14 0 7 -1 13 -2 13 -2 0 -8 -6 -14 -13z"></path> <path d="M3105 1561 c-3 -5 -2 -12 3 -15 5 -3 9 1 9 9 0 17 -3 19 -12 6z"></path> <path d="M2669 1503 c-13 -16 -12 -17 4 -4 16 13 21 21 13 21 -2 0 -10 -8 -17 -17z"></path> <path d="M2724 1304 c1 -8 4 -15 7 -16 2 -2 3 -1 2 1 -2 2 2 9 7 16 7 8 5 12 -4 12 -8 0 -13 -6 -12 -13z"></path> <path d="M486 1173 c-6 -14 -5 -15 5 -6 7 7 10 15 7 18 -3 3 -9 -2 -12 -12z"></path> <path d="M5300 5146 c0 -2 8 -10 18 -17 15 -13 16 -12 3 4 -13 16 -21 21 -21 13z"></path> <path d="M2645 4686 c-156 -27 -458 -139 -542 -202 -17 -13 -36 -24 -41 -24 -6 0 -12 -4 -14 -8 -1 -4 -25 -23 -52 -42 -57 -41 -216 -195 -216 -210 0 -5 -4 -10 -10 -10 -5 0 -10 -7 -10 -15 0 -8 -7 -15 -15 -15 -8 0 -15 -7 -15 -15 0 -8 -4 -15 -10 -15 -5 0 -10 -9 -10 -19 0 -10 -7 -21 -15 -25 -8 -3 -12 -12 -9 -21 4 -10 0 -15 -11 -15 -11 0 -15 -5 -11 -15 3 -9 -1 -18 -9 -21 -8 -4 -15 -12 -15 -20 0 -8 -4 -14 -10 -14 -5 0 -10 -7 -10 -15 0 -9 -7 -18 -15 -21 -10 -4 -13 -13 -10 -25 4 -13 1 -19 -9 -19 -9 0 -16 -8 -16 -19 0 -11 -4 -23 -10 -26 -5 -3 -10 -17 -10 -31 0 -13 -4 -24 -10 -24 -5 0 -10 -9 -10 -21 0 -20 -7 -38 -50 -134 -32 -70 -73 -195 -67 -202 4 -3 9 0 11 8 3 8 12 37 21 64 26 81 121 252 195 349 191 255 457 418 787 482 120 24 429 24 564 1 238 -41 583 -190 783 -337 80 -58 217 -173 286 -238 36 -34 68 -62 73 -62 4 0 7 -5 7 -11 0 -7 16 -27 35 -46 19 -19 35 -38 35 -43 0 -4 4 -10 8 -12 4 -1 34 -41 66 -88 33 -47 62 -88 66 -93 7 -9 64 71 154 217 78 124 80 102 -28 236 -185 229 -516 499 -765 625 -112 56 -333 134 -454 160 -39 8 -90 20 -112 25 -67 18 -408 21 -500 6z m147 -29 c6 -9 8 -9 8 1 0 10 33 12 158 7 86 -3 164 -7 172 -9 8 -2 28 -7 43 -10 18 -4 25 -11 20 -19 -5 -9 -3 -9 8 -1 15 11 79 9 88 -4 3 -4 11 -7 16 -7 26 -2 216 -64 196 -65 -26 0 -3 -11 35 -16 21 -3 42 -10 46 -17 4 -6 10 -8 14 -5 3 4 13 1 20 -7 8 -8 22 -11 31 -8 11 4 14 3 9 -5 -5 -8 0 -12 13 -12 12 0 21 -5 21 -11 0 -5 -4 -8 -9 -4 -5 3 -12 1 -16 -4 -6 -10 13 -8 50 4 16 6 17 5 5 -4 -13 -9 -12 -11 6 -11 12 0 27 -7 34 -15 7 -9 15 -13 18 -10 3 2 34 -16 69 -40 35 -25 69 -45 74 -45 6 0 8 -4 5 -8 -2 -4 8 -13 23 -20 15 -7 37 -21 48 -31 12 -11 24 -17 27 -14 3 4 6 -1 6 -11 0 -10 12 -21 29 -27 16 -6 32 -17 35 -25 3 -8 12 -14 19 -14 17 0 51 -36 40 -42 -4 -3 -2 -3 5 -1 17 4 185 -161 174 -171 -4 -4 -2 -6 4 -4 17 5 97 -79 88 -93 -5 -8 -2 -10 9 -6 9 3 18 0 21 -9 3 -9 1 -12 -4 -9 -6 3 -10 1 -10 -4 0 -6 7 -11 16 -11 10 0 14 -5 10 -16 -3 -9 -2 -12 5 -9 11 8 60 -40 51 -50 -4 -3 0 -10 8 -15 11 -7 12 -10 2 -10 -7 0 -10 -5 -7 -10 3 -6 -3 -23 -14 -39 -11 -15 -17 -32 -13 -36 4 -5 2 -5 -4 -2 -12 7 -36 -14 -33 -29 3 -21 -2 -28 -11 -14 -8 12 -10 11 -10 -7 0 -13 -6 -23 -12 -23 -9 0 -8 -4 2 -10 11 -7 11 -10 2 -10 -7 0 -10 -5 -7 -10 4 -6 1 -9 -6 -8 -7 2 -13 -1 -14 -7 0 -5 -13 -30 -28 -55 -23 -38 -27 -41 -23 -17 3 15 1 25 -3 23 -4 -3 -15 4 -24 15 -9 10 -14 19 -10 19 4 0 -2 6 -12 14 -10 7 -20 22 -21 32 -2 10 -8 20 -13 22 -6 2 -11 10 -11 18 0 8 -5 14 -11 14 -5 0 -7 5 -3 12 4 6 3 8 -3 5 -11 -7 -45 28 -36 37 4 3 1 6 -6 6 -18 0 -38 23 -33 38 2 7 0 11 -5 10 -8 -3 -33 14 -56 40 -7 7 -20 21 -30 30 -67 61 -90 84 -78 77 10 -5 12 -4 7 4 -4 6 -11 9 -16 6 -4 -3 -25 10 -46 29 -21 19 -43 32 -49 29 -5 -4 -7 -3 -3 2 8 9 -7 25 -42 43 -14 7 -36 22 -50 33 -14 12 -19 17 -11 13 9 -5 12 -3 7 4 -4 7 -16 12 -28 12 -13 0 -18 5 -15 14 4 9 -2 12 -19 10 -16 -1 -36 9 -60 31 -19 18 -46 36 -59 39 -14 4 -25 11 -25 17 0 6 -4 8 -9 4 -5 -3 -12 -1 -16 5 -3 5 1 10 9 10 8 0 18 4 21 10 7 11 -23 2 -42 -13 -9 -6 -13 -6 -13 2 0 6 -7 11 -15 11 -8 0 -15 5 -15 10 0 6 -4 10 -9 10 -5 0 -25 7 -45 15 -20 8 -39 16 -43 16 -5 1 -17 6 -28 12 -22 12 -27 14 -51 16 -8 0 -12 6 -8 12 4 7 1 10 -7 7 -8 -3 -36 4 -64 14 -27 10 -57 18 -67 18 -9 0 -18 4 -20 9 -1 5 -23 12 -48 16 -25 3 -63 10 -85 15 -153 34 -424 43 -560 19 -38 -6 -87 -12 -107 -12 -20 0 -35 -4 -32 -8 6 -10 -126 -50 -139 -42 -6 3 -7 2 -4 -3 3 -5 -25 -20 -61 -33 -37 -13 -74 -30 -82 -37 -8 -7 -22 -14 -30 -16 -8 -2 -26 -13 -40 -26 -14 -12 -33 -21 -43 -18 -11 3 -24 -5 -34 -20 -12 -19 -18 -22 -24 -12 -7 10 -9 9 -9 -4 0 -9 -13 -24 -29 -35 -16 -10 -31 -22 -32 -28 -2 -5 -10 -9 -18 -7 -9 2 -12 -2 -8 -12 4 -11 1 -13 -10 -9 -11 4 -14 2 -9 -5 4 -7 2 -12 -4 -12 -6 0 -8 -5 -5 -10 4 -6 3 -9 -2 -8 -11 3 -63 -46 -63 -60 0 -6 -5 -14 -12 -18 -7 -5 -8 -3 -3 6 5 9 4 11 -3 6 -7 -4 -12 -14 -12 -23 0 -9 -3 -13 -7 -10 -3 4 -12 -1 -20 -11 -8 -10 -6 -2 4 18 9 19 16 39 15 44 -2 5 4 6 13 2 9 -3 13 -2 10 3 -3 5 -1 12 5 16 6 4 8 11 5 16 -4 5 -1 9 5 9 6 0 9 4 5 9 -3 5 4 16 15 24 11 7 17 17 12 22 -4 4 0 6 9 3 12 -5 15 -1 11 18 -2 13 0 24 6 24 6 0 23 20 38 44 16 25 32 42 36 40 4 -3 8 0 8 6 0 17 170 179 170 162 0 -4 7 1 14 11 19 24 99 77 108 71 5 -3 7 0 6 8 -2 7 7 14 20 16 12 2 22 7 22 11 0 9 51 34 57 27 3 -2 13 4 24 15 12 12 34 19 62 20 23 1 33 4 22 6 -13 4 9 15 65 34 46 15 88 26 92 23 4 -3 8 0 8 6 0 7 8 9 20 5 11 -3 20 -2 20 3 0 10 33 18 115 28 27 3 51 6 52 7 8 8 79 3 85 -6z m1263 -407 c3 -5 1 -10 -4 -10 -6 0 -11 5 -11 10 0 6 2 10 4 10 3 0 8 -4 11 -10z" class=""></path>        <path d="M2095 4655 c-38 -13 -78 -24 -89 -25 -10 0 -55 -19 -100 -42 -87 -46 -95 -52 -132 -85 -14 -13 -29 -23 -33 -23 -5 0 -24 -14 -42 -31 -19 -17 -49 -37 -66 -45 -18 -8 -33 -19 -33 -24 0 -6 -5 -10 -10 -10 -18 0 -156 -129 -152 -142 1 -4 -3 -8 -8 -8 -14 0 -60 -46 -60 -60 0 -5 -7 -10 -15 -10 -8 0 -15 -5 -15 -10 0 -6 -9 -20 -20 -32 -11 -12 -20 -28 -20 -35 0 -7 -7 -13 -15 -13 -8 0 -15 -7 -15 -15 0 -8 -4 -15 -10 -15 -5 0 -10 -9 -10 -20 0 -11 -4 -20 -10 -20 -5 0 -10 -7 -10 -15 0 -8 -7 -15 -16 -15 -10 0 -13 -6 -9 -19 3 -12 0 -21 -10 -25 -8 -3 -15 -15 -15 -26 0 -11 -4 -20 -10 -20 -5 0 -10 -11 -10 -25 0 -16 -6 -25 -15 -25 -11 0 -14 -7 -9 -25 5 -19 2 -25 -10 -25 -9 0 -16 -8 -16 -19 0 -11 -4 -23 -10 -26 -5 -3 -10 -17 -10 -31 0 -13 -4 -24 -10 -24 -5 0 -10 -14 -10 -30 0 -17 -6 -33 -14 -36 -10 -4 -13 -15 -9 -40 4 -25 2 -35 -11 -40 -9 -4 -16 -18 -16 -34 0 -16 -4 -32 -10 -35 -5 -3 -10 -21 -10 -40 0 -19 -4 -37 -10 -40 -5 -3 -10 -28 -10 -54 0 -29 -6 -53 -14 -60 -12 -10 -19 -75 -28 -256 0 -11 2 -58 5 -105 3 -47 6 -113 6 -147 1 -39 6 -67 15 -76 9 -8 11 -19 6 -27 -5 -7 -4 -24 1 -37 5 -14 9 -44 9 -69 0 -24 5 -44 10 -44 6 0 10 -25 10 -55 0 -30 5 -55 10 -55 6 0 10 -23 10 -51 0 -31 4 -48 10 -44 6 4 10 -13 10 -43 0 -32 5 -54 15 -62 8 -7 15 -23 15 -36 0 -13 5 -24 10 -24 6 0 10 -11 10 -25 0 -14 6 -28 14 -31 8 -3 12 -13 9 -25 -3 -11 1 -21 11 -25 9 -3 16 -17 16 -30 0 -13 5 -24 10 -24 6 0 10 -9 10 -20 0 -11 5 -20 10 -20 6 0 10 -11 10 -25 0 -14 6 -28 14 -31 8 -3 13 -11 10 -18 -3 -7 2 -19 11 -26 8 -7 15 -21 15 -31 0 -11 6 -19 14 -19 9 0 12 -7 9 -20 -4 -14 0 -20 11 -20 9 0 13 -6 10 -15 -4 -9 1 -18 11 -21 9 -4 14 -13 11 -20 -3 -8 -1 -14 4 -14 5 0 16 -16 25 -35 9 -19 27 -45 38 -58 12 -12 29 -36 37 -51 8 -15 25 -39 37 -52 13 -14 23 -29 23 -35 0 -5 5 -9 10 -9 6 0 10 -5 10 -11 0 -7 16 -26 35 -45 19 -18 35 -37 35 -43 0 -6 3 -11 8 -11 4 0 13 -13 20 -30 8 -16 20 -30 28 -30 9 0 13 -4 10 -8 -3 -5 10 -24 29 -42 34 -33 36 -34 73 -21 35 13 322 147 329 155 2 2 -32 39 -75 82 -203 204 -387 473 -504 738 -48 110 -124 344 -147 453 -41 201 -54 345 -48 553 6 230 28 366 88 545 98 296 262 553 458 721 88 75 212 160 305 209 78 41 69 43 -29 10z m-135 -79 c0 -2 -7 -7 -16 -10 -8 -3 -12 -2 -9 4 6 10 25 14 25 6z m-34 -28 c4 -7 4 -10 -1 -6 -4 4 -14 0 -22 -10 -8 -9 -12 -11 -8 -4 3 6 2 12 -3 12 -5 0 -12 -9 -15 -20 -3 -11 -11 -19 -19 -18 -7 2 -12 -3 -10 -9 1 -7 -4 -13 -12 -13 -7 0 -22 -11 -32 -25 -10 -14 -25 -25 -33 -25 -8 0 -12 -3 -8 -6 6 -7 -38 -55 -49 -54 -4 1 -12 -9 -18 -22 -7 -13 -19 -22 -28 -22 -9 1 -14 -4 -12 -11 3 -7 -8 -24 -25 -38 -16 -13 -27 -28 -24 -31 4 -3 1 -6 -5 -6 -6 0 -14 -9 -17 -20 -4 -11 -11 -17 -17 -14 -6 4 -8 2 -5 -3 4 -6 -1 -21 -11 -34 -28 -38 -87 -139 -112 -194 -13 -27 -32 -63 -43 -78 -10 -16 -17 -31 -13 -34 3 -3 -1 -18 -9 -32 -7 -14 -21 -51 -31 -81 -9 -30 -20 -59 -24 -65 -5 -5 -10 -23 -11 -40 -2 -16 -6 -32 -10 -35 -7 -7 -41 -185 -45 -240 -1 -25 -6 -75 -9 -113 -8 -79 -8 -291 0 -327 3 -14 7 -50 9 -80 3 -30 12 -90 21 -133 9 -42 15 -83 14 -90 -1 -6 3 -25 10 -42 7 -16 10 -37 8 -47 -3 -10 -1 -15 5 -12 5 3 8 0 7 -7 -2 -8 2 -24 9 -36 7 -12 9 -29 6 -37 -4 -9 0 -23 7 -32 17 -21 49 -116 42 -128 -3 -5 -1 -6 5 -2 8 5 12 -1 12 -17 0 -14 12 -45 26 -71 14 -25 23 -50 20 -55 -3 -5 1 -14 10 -21 8 -7 13 -19 10 -27 -3 -8 -2 -12 3 -9 9 6 26 -22 22 -38 -1 -5 2 -12 6 -15 18 -13 64 -112 57 -123 -4 -7 -3 -8 4 -4 7 4 17 -3 24 -18 6 -14 16 -26 21 -26 5 0 7 -11 4 -25 -2 -14 -2 -23 1 -21 8 8 42 -14 42 -27 0 -7 -4 -6 -10 3 -5 8 -10 10 -10 5 0 -6 16 -25 35 -44 19 -18 35 -37 35 -42 0 -6 12 -22 26 -37 14 -15 48 -57 76 -94 28 -38 55 -68 61 -68 6 0 8 -2 5 -5 -8 -9 56 -71 67 -66 6 2 7 1 3 -4 -8 -8 40 -55 56 -55 5 0 6 -3 3 -7 -4 -3 -2 -12 4 -19 8 -9 5 -11 -10 -7 -12 3 -21 1 -21 -6 0 -15 -59 -44 -76 -37 -8 3 -13 2 -10 -3 3 -5 -22 -21 -57 -36 -34 -16 -65 -32 -68 -38 -4 -5 -14 -7 -23 -4 -9 4 -16 2 -16 -4 0 -6 -10 -9 -22 -7 -13 2 -22 9 -21 15 2 7 -6 10 -17 8 -12 -2 -18 0 -15 6 4 5 0 15 -7 23 -7 8 -22 26 -33 42 -11 15 -37 46 -58 68 -20 22 -35 47 -32 54 2 7 0 10 -5 7 -6 -3 -13 2 -17 12 -4 10 -9 20 -12 23 -4 3 -19 23 -36 45 -16 21 -37 47 -47 57 -10 10 -18 23 -18 28 0 6 -9 20 -20 32 -11 12 -20 28 -20 35 0 7 -5 13 -11 13 -6 0 -9 6 -6 14 3 8 -1 17 -10 20 -9 4 -13 9 -10 12 3 3 -2 14 -11 25 -9 11 -18 24 -18 29 -1 6 -2 15 -3 21 0 5 -6 7 -12 3 -8 -4 -9 1 -4 16 5 14 3 20 -3 16 -6 -3 -9 6 -8 23 1 20 -2 27 -11 24 -7 -3 -15 3 -19 13 -3 11 -10 27 -15 37 -5 10 -7 23 -3 30 4 7 4 9 -1 5 -10 -10 -34 21 -35 45 0 9 -4 17 -10 17 -5 0 -10 5 -10 11 0 5 4 8 8 5 5 -3 -2 15 -14 41 -13 25 -21 50 -18 55 3 4 0 7 -7 6 -18 -4 -24 33 -7 44 10 8 9 9 -4 4 -20 -6 -27 12 -26 68 0 21 -5 43 -11 49 -6 6 -11 26 -11 43 0 18 -7 40 -16 48 -8 9 -11 16 -5 16 7 0 9 10 4 28 -3 15 -6 35 -5 45 0 9 -3 17 -7 17 -5 0 -12 35 -16 78 -4 42 -9 86 -12 97 -19 77 -21 448 -3 515 7 25 13 65 15 90 2 44 18 115 34 155 21 51 34 92 35 111 1 11 5 24 8 30 3 5 8 26 12 47 4 21 11 35 17 32 5 -4 9 4 9 17 0 13 9 38 20 56 11 18 20 39 20 48 0 8 4 13 9 10 4 -3 13 6 19 19 9 19 9 25 0 25 -7 0 -5 7 4 18 9 9 18 26 22 38 3 11 14 29 24 40 9 10 26 36 37 58 11 21 26 40 32 43 7 3 11 9 8 13 -3 5 5 17 18 27 13 10 25 23 26 28 9 28 14 34 22 29 5 -3 9 2 9 10 0 15 12 21 33 17 5 -1 7 4 5 10 -5 14 103 129 114 123 4 -3 8 -1 8 5 0 5 9 13 20 16 11 3 20 12 20 18 1 17 48 49 75 51 17 1 21 4 13 14 -7 8 -7 12 1 13 6 1 16 3 21 4 6 1 16 3 23 4 9 1 9 3 -1 10 -10 6 -5 11 17 21 17 7 31 16 31 21 0 5 7 9 15 9 8 0 15 5 15 10 0 6 7 10 15 10 8 0 15 5 15 11 0 5 4 8 9 4 6 -3 13 1 18 9 6 12 29 25 60 35 1 1 5 -5 9 -11z" class=""></path>      <path d="M1446 2062 c-3 -5 1 -9 9 -9 8 0 12 4 9 9 -3 4 -7 8 -9 8 -2 0 -6 -4 -9 -8z"></path> <path d="M1524 1910 c0 -13 4 -16 10 -10 7 7 7 13 0 20 -6 6 -10 3 -10 -10z"></path> <path d="M1620 1766 c0 -2 8 -10 18 -17 15 -13 16 -12 3 4 -13 16 -21 21 -21 13z"></path> <path d="M1761 1583 c-1 -17 16 -25 25 -12 4 7 3 9 -4 5 -5 -3 -13 0 -15 6 -4 9 -6 10 -6 1z"></path> <path d="M1538 1403 c7 -3 16 -2 19 1 4 3 -2 6 -13 5 -11 0 -14 -3 -6 -6z"></path> <path d="M2514 3585 c-4 -8 -3 -23 1 -32 6 -16 8 -15 17 7 10 24 11 24 24 -18 7 -24 14 -67 15 -95 1 -29 8 -70 15 -92 7 -22 12 -64 10 -92 -1 -29 2 -47 6 -40 8 13 12 -32 9 -95 -2 -21 2 -38 7 -38 13 0 22 -49 25 -132 1 -36 5 -62 8 -56 3 5 9 -1 12 -14 10 -34 8 -45 -4 -28 -9 12 -9 11 -3 -5 4 -11 9 -38 12 -60 2 -22 8 -45 13 -51 4 -5 5 -21 2 -34 -3 -13 -2 -21 3 -18 5 3 10 -30 11 -74 2 -45 8 -87 14 -94 6 -8 12 -32 13 -53 0 -25 4 -35 9 -28 5 7 6 -5 3 -28 -3 -24 -2 -34 3 -26 7 11 10 11 15 0 9 -20 0 53 -19 146 -9 44 -20 114 -25 155 -5 41 -20 149 -35 240 -14 91 -36 237 -50 325 -53 353 -51 345 -86 345 -11 0 -22 -7 -25 -15z"></path> <path d="M3685 3545 c-114 -27 -235 -72 -294 -110 -22 -14 -43 -25 -47 -25 -3 0 -11 -6 -18 -12 -8 -7 -24 -20 -36 -28 -30 -21 -110 -97 -110 -106 0 -4 -7 -12 -16 -18 -14 -11 -14 -15 -1 -46 l15 -35 1 34 c1 23 9 39 26 53 14 11 25 23 25 28 0 10 67 80 76 80 4 0 38 20 75 45 38 25 84 48 102 52 17 3 34 9 37 13 10 15 178 62 241 67 66 6 66 6 71 -22 9 -47 1 -269 -11 -298 -6 -16 -11 -39 -11 -53 0 -13 -4 -24 -10 -24 -5 0 -10 -8 -10 -18 0 -10 -6 -24 -12 -31 -10 -11 -10 -13 0 -7 16 10 15 -6 -3 -30 -8 -10 -15 -25 -15 -32 0 -21 -56 -103 -65 -95 -4 5 -5 3 -1 -4 6 -11 -13 -33 -70 -79 -10 -9 -13 -13 -6 -9 28 14 9 -5 -25 -26 -21 -13 -40 -26 -43 -29 -12 -14 -61 -29 -77 -24 -15 5 -16 4 -3 -6 12 -9 10 -11 -12 -7 -15 2 -25 0 -22 -4 7 -11 -3 -12 -109 -13 -63 -1 -90 -5 -96 -15 -5 -7 -13 -11 -19 -7 -6 3 -12 2 -14 -4 -1 -5 -14 -11 -28 -12 -14 -2 -29 -8 -35 -15 -5 -6 -46 -15 -89 -20 -54 -5 -81 -13 -87 -23 -26 -50 -39 -92 -33 -102 5 -7 3 -8 -6 -3 -9 5 -10 2 -5 -14 4 -12 2 -21 -4 -21 -6 0 -11 -9 -11 -19 0 -11 -4 -23 -10 -26 -5 -3 -10 -13 -10 -21 0 -10 5 -12 13 -8 9 6 9 5 -1 -8 -6 -8 -16 -35 -21 -59 -27 -122 -33 -142 -43 -128 -8 11 -9 10 -4 -3 5 -17 -9 -115 -22 -148 -3 -8 -4 -18 -4 -22 1 -5 -8 -8 -20 -9 -21 0 -21 -1 -4 -8 12 -5 16 -10 9 -14 -17 -10 -43 3 -44 22 -10 152 -28 318 -38 345 -6 15 -11 41 -11 57 0 18 -4 28 -10 24 -13 -8 -13 -102 -1 -109 5 -4 12 0 14 6 3 7 6 -36 5 -97 0 -71 4 -111 11 -113 6 -2 11 -30 11 -69 0 -71 13 -93 53 -93 32 0 34 6 108 300 33 135 67 266 75 291 l15 46 69 6 c66 6 191 47 218 72 10 9 26 10 60 3 68 -13 124 -3 205 38 94 47 139 84 191 158 63 88 82 129 111 241 32 119 48 383 25 410 -17 20 -46 18 -165 -10z" class=""></path> <path d="M2490 3483 c0 -42 -4 -73 -10 -73 -5 0 -10 -21 -10 -46 0 -27 -6 -51 -15 -60 -16 -16 -21 -93 -7 -109 4 -6 6 -9 3 -8 -2 1 -10 -5 -18 -13 -11 -10 -14 -31 -11 -74 2 -43 -1 -60 -9 -60 -8 0 -13 -15 -13 -41 0 -24 -4 -38 -10 -34 -6 4 -10 -13 -10 -43 0 -35 -4 -52 -15 -56 -17 -6 -22 -101 -5 -111 6 -4 10 11 10 39 0 25 4 48 10 51 5 3 12 28 16 56 4 27 11 52 15 55 5 3 9 20 9 37 0 18 7 40 15 51 9 11 12 35 10 67 -3 37 0 51 12 58 11 6 14 17 10 37 -3 15 2 52 9 83 8 30 12 60 10 68 -3 7 -1 15 5 19 6 3 8 12 5 19 -2 7 0 17 5 22 17 17 19 99 4 120 -13 16 -14 10 -15 -54z"></path> <path d="M5188 3500 c-10 -9 -18 -22 -18 -28 0 -7 -4 -12 -10 -12 -5 0 -10 -8 -10 -17 0 -10 -7 -27 -15 -37 -8 -10 -12 -23 -9 -28 3 -5 0 -7 -8 -6 -7 2 -12 -5 -12 -14 1 -10 -4 -18 -12 -18 -8 0 -14 -9 -14 -20 0 -11 -4 -20 -10 -20 -5 0 -10 -7 -10 -15 0 -9 -6 -18 -14 -21 -8 -3 -12 -12 -9 -20 3 -8 -1 -14 -11 -14 -30 0 -16 -19 22 -30 25 -8 130 -10 317 -8 245 3 285 6 323 22 55 24 127 104 145 164 22 70 28 122 14 127 -7 2 -154 5 -327 8 -284 3 -317 2 -332 -13z m420 -13 l222 -1 0 -27 c0 -35 -10 -60 -20 -54 -5 3 -12 0 -16 -6 -4 -8 -3 -9 4 -5 8 5 12 -2 12 -19 0 -17 -4 -24 -12 -19 -8 5 -9 2 -5 -10 4 -9 3 -15 -1 -12 -4 2 -13 -8 -20 -22 -14 -32 -67 -66 -85 -56 -9 6 -9 5 1 -8 26 -33 -203 -48 -337 -23 -22 5 -23 4 -6 -4 17 -8 14 -10 -15 -10 -19 0 -58 4 -87 8 -29 4 -50 4 -47 -1 6 -9 -90 -9 -124 0 -24 7 -30 20 -14 31 13 9 92 136 92 150 0 6 5 11 10 11 6 0 10 8 10 18 1 20 29 56 50 65 8 3 49 3 90 0 41 -3 175 -6 298 -6z"></path> <path d="M3538 3280 c-3 -8 -5 -17 -4 -20 0 -3 -9 -17 -22 -30 -13 -14 -32 -40 -43 -57 -23 -37 -164 -183 -176 -183 -4 0 -1 5 7 11 13 9 13 10 0 6 -8 -2 -14 -10 -12 -16 1 -6 -8 -15 -20 -20 -13 -5 -38 -21 -57 -35 -19 -14 -45 -26 -58 -26 -22 0 -23 3 -23 85 0 58 5 96 16 116 16 32 16 74 -1 74 -5 0 -11 -15 -12 -34 -1 -19 -6 -37 -11 -40 -6 -3 -11 -35 -12 -71 -4 -119 -1 -150 16 -157 15 -6 106 31 128 52 6 6 35 28 63 48 98 72 240 252 231 295 -3 14 -5 14 -10 2z"></path> <path d="M3577 3255 c-20 -19 -40 -81 -32 -95 3 -6 -1 -13 -9 -16 -9 -3 -16 -10 -16 -16 0 -5 -7 -16 -15 -24 -8 -8 -17 -31 -21 -52 -4 -20 -14 -42 -22 -48 -9 -6 -13 -18 -9 -28 4 -10 1 -16 -8 -16 -8 0 -15 -5 -15 -11 0 -26 -107 -111 -203 -160 -99 -51 -105 -53 -208 -58 -115 -7 -139 -18 -139 -65 0 -14 -4 -26 -10 -26 -5 0 -10 -20 -10 -44 0 -29 -5 -46 -14 -49 -9 -4 -12 -14 -9 -28 4 -14 0 -25 -11 -31 -9 -5 -16 -14 -16 -19 0 -6 -7 -17 -15 -25 -8 -9 -15 -27 -14 -42 0 -26 1 -26 17 8 9 19 25 44 35 54 9 11 17 25 17 30 0 6 7 24 15 40 9 17 16 46 17 65 1 20 12 52 24 72 l23 37 88 5 c90 4 108 7 154 25 15 6 30 8 35 4 4 -4 4 -2 1 4 -4 7 3 14 18 18 14 4 25 11 25 16 0 5 7 7 15 4 8 -4 15 -2 15 3 0 5 16 17 35 26 20 9 38 24 41 32 4 8 10 15 16 15 25 0 128 144 128 179 0 11 5 23 11 26 5 4 8 12 6 18 -2 7 5 20 16 30 11 9 16 17 12 17 -4 0 0 9 10 20 11 12 13 20 6 20 -9 0 -9 5 -1 20 6 11 15 18 20 15 4 -3 6 4 3 15 -3 11 0 27 7 35 16 19 6 19 -13 0z"></path> <path d="M2495 3157 c-8 -12 -15 -30 -15 -40 0 -10 -4 -16 -8 -13 -5 3 -10 -16 -11 -42 -1 -26 -5 -48 -10 -50 -4 -1 -6 -13 -4 -26 3 -14 0 -32 -6 -43 -10 -15 -10 -13 -6 12 5 28 5 29 -5 6 -6 -14 -7 -28 -2 -33 9 -9 -13 -117 -29 -150 -5 -10 -9 -38 -9 -63 0 -25 -4 -45 -10 -45 -5 0 -7 -7 -4 -15 3 -8 3 -19 -1 -25 -4 -7 -9 -35 -10 -63 -4 -50 -29 -154 -40 -166 -14 -14 -40 20 -54 71 -9 31 -19 60 -23 64 -5 4 -8 16 -8 27 0 10 -6 31 -14 45 -8 15 -20 47 -27 72 -7 25 -21 54 -31 66 -11 13 -16 28 -12 40 5 16 4 17 -5 4 -9 -12 -10 -6 -6 25 l6 40 -14 -30 c-9 -19 -16 -25 -21 -17 -13 22 -24 12 -53 -48 -15 -33 -35 -60 -43 -61 -10 0 -11 -2 -2 -6 6 -2 12 -9 12 -15 0 -6 -7 -7 -16 -4 -8 3 -13 2 -10 -3 8 -13 -26 -18 -139 -20 -55 -2 -104 -5 -109 -8 -5 -4 -6 -1 -2 5 5 8 -3 12 -23 12 -16 0 -32 -3 -34 -7 -7 -11 -214 0 -226 12 -6 6 -7 16 -1 25 8 13 49 15 251 17 286 1 278 -1 322 103 8 19 25 64 38 100 28 81 39 97 51 75 5 -8 13 -13 19 -10 5 4 9 -8 9 -25 0 -19 4 -29 10 -25 7 4 9 -3 5 -22 -5 -23 -4 -25 5 -13 10 12 11 11 7 -8 -3 -14 3 -38 15 -57 11 -19 17 -39 14 -44 -3 -5 -1 -11 4 -13 13 -4 16 -33 7 -73 l-7 -30 15 25 c14 24 14 24 15 4 0 -12 7 -25 16 -28 13 -5 15 -1 9 21 -3 15 -10 30 -14 33 -4 3 -13 31 -21 63 -7 32 -17 60 -22 63 -4 3 -8 13 -8 22 0 9 -12 47 -26 84 -21 55 -30 68 -47 68 -36 -1 -57 -24 -57 -63 0 -28 -4 -35 -14 -31 -11 4 -14 -2 -11 -25 3 -22 0 -31 -10 -31 -9 0 -15 -10 -15 -24 0 -14 -4 -28 -10 -31 -5 -3 -10 -15 -10 -26 0 -11 -8 -28 -18 -39 -16 -17 -38 -19 -268 -22 -228 -3 -254 -5 -272 -21 -22 -20 -19 -43 7 -64 12 -9 87 -12 276 -13 221 0 264 2 283 16 26 18 72 104 72 133 0 35 19 33 34 -4 8 -19 22 -38 31 -41 9 -4 15 -18 15 -35 0 -16 5 -29 10 -29 6 0 10 -13 10 -28 0 -15 5 -33 12 -40 6 -6 13 -24 14 -39 2 -15 8 -29 14 -31 5 -2 10 -17 10 -33 0 -16 4 -29 9 -29 6 0 11 -16 13 -36 4 -45 26 -62 64 -49 23 8 30 19 41 70 12 50 40 202 59 320 3 17 9 44 14 60 5 17 19 80 31 140 12 61 25 127 29 148 9 47 24 52 28 10 2 -21 9 -33 18 -33 8 0 14 -10 14 -23 0 -13 4 -27 9 -32 6 -6 11 -52 12 -102 1 -51 7 -103 14 -116 6 -13 11 -31 9 -41 -1 -9 4 -20 12 -23 10 -4 14 -23 14 -70 0 -40 4 -62 10 -58 6 4 10 -23 10 -74 0 -47 4 -81 10 -81 18 0 15 88 -5 170 -7 30 -16 78 -20 105 -4 28 -12 56 -18 64 -7 8 -12 53 -12 111 0 54 -3 93 -7 86 -5 -6 -8 0 -8 14 0 30 -50 138 -67 144 -7 3 -19 -5 -28 -17z"></path> <path d="M4913 3123 c-7 -2 -13 -16 -13 -29 0 -15 -6 -24 -16 -24 -11 0 -15 -6 -11 -20 3 -13 0 -20 -9 -20 -8 0 -14 -9 -14 -20 0 -11 -7 -20 -15 -20 -9 0 -12 -6 -9 -15 4 -9 0 -15 -10 -15 -9 0 -16 -7 -16 -15 0 -8 -4 -15 -10 -15 -5 0 -10 -6 -10 -13 0 -7 -11 -21 -25 -31 -13 -10 -22 -22 -19 -27 3 -5 -2 -9 -10 -9 -9 0 -16 -7 -16 -15 0 -8 -4 -15 -10 -15 -5 0 -10 -11 -10 -25 0 -14 -5 -25 -12 -25 -9 0 -9 -3 0 -12 7 -7 12 -31 12 -54 0 -24 5 -46 10 -49 6 -3 10 -22 10 -41 0 -20 6 -41 13 -49 8 -7 15 -39 16 -71 1 -32 7 -64 12 -70 6 -7 9 -129 9 -305 -1 -421 -2 -443 -13 -450 -5 -4 -9 -32 -8 -63 1 -44 -2 -56 -14 -56 -10 0 -15 -11 -15 -35 0 -19 -4 -35 -10 -35 -5 0 -10 -14 -10 -30 0 -17 -6 -33 -14 -36 -8 -3 -12 -13 -9 -25 4 -13 0 -19 -12 -19 -13 0 -16 -6 -11 -25 5 -18 2 -25 -9 -25 -9 0 -15 -9 -15 -25 0 -15 -6 -25 -14 -25 -9 0 -12 -7 -9 -21 4 -14 0 -25 -11 -31 -11 -6 -15 -16 -11 -29 4 -13 2 -19 -9 -19 -9 0 -16 -6 -16 -13 0 -18 -24 -67 -32 -67 -5 0 -8 -9 -8 -20 0 -11 -6 -19 -12 -18 -7 2 -12 -5 -10 -14 2 -11 -3 -18 -13 -18 -8 0 -15 -6 -15 -13 0 -7 -10 -24 -22 -37 -13 -14 -22 -28 -20 -32 1 -5 -3 -8 -9 -8 -11 0 -39 -25 -39 -35 0 -10 -27 -35 -38 -35 -5 0 -15 -11 -22 -25 -7 -14 -17 -25 -22 -25 -4 0 -8 -9 -8 -20 0 -11 -7 -20 -16 -20 -8 0 -12 -4 -9 -10 3 -5 -1 -10 -9 -10 -9 0 -16 -5 -16 -11 0 -14 -26 -39 -40 -39 -6 0 -8 -4 -5 -10 3 -5 1 -10 -6 -10 -7 0 -20 -6 -28 -14 -23 -20 -198 -119 -246 -138 -22 -9 -65 -26 -95 -37 -82 -30 -23 -27 86 4 131 38 371 159 490 248 166 125 325 296 432 468 90 143 202 417 233 570 6 30 17 88 26 129 9 47 17 166 20 322 l6 247 182 3 182 3 49 30 c39 24 55 43 81 95 36 73 58 180 39 192 -15 10 -239 9 -401 -1 -163 -11 -188 -3 -205 61 -18 68 -57 190 -74 231 -16 37 -20 40 -43 30z m58 -155 c11 -38 16 -74 13 -80 -4 -6 -3 -8 3 -5 7 4 14 -8 17 -28 8 -39 43 -78 64 -70 7 2 11 1 8 -4 -9 -15 30 -19 81 -9 26 5 73 8 103 7 30 -1 57 -1 60 0 3 1 70 3 151 4 l145 3 2 -29 c1 -15 -1 -34 -5 -40 -4 -7 -8 -14 -8 -17 0 -14 -31 -97 -40 -109 -30 -41 -67 -69 -82 -64 -11 4 -14 2 -9 -5 10 -16 -7 -15 -23 1 -10 10 -11 9 -6 -4 5 -14 -13 -15 -165 -15 -106 1 -170 5 -170 11 0 6 -8 -3 -18 -18 -17 -25 -18 -45 -14 -194 3 -121 2 -164 -7 -159 -6 4 -11 1 -11 -8 0 -8 4 -16 9 -18 4 -1 2 -46 -5 -98 -8 -52 -14 -112 -15 -132 -1 -21 -6 -38 -11 -38 -4 0 -8 -12 -8 -27 0 -16 -10 -62 -21 -103 -12 -41 -24 -89 -29 -106 -4 -18 -15 -47 -24 -65 -10 -19 -29 -63 -43 -99 -14 -36 -29 -67 -33 -70 -3 -3 -12 -20 -19 -38 -12 -28 -16 -31 -30 -20 -14 11 -14 11 -3 -3 15 -20 1 -66 -23 -75 -8 -4 -15 -13 -15 -21 0 -21 -40 -74 -51 -68 -5 4 -6 -2 -2 -11 5 -13 3 -15 -7 -9 -9 5 -11 4 -6 -4 11 -17 -48 -93 -62 -79 -8 8 -10 6 -6 -8 3 -10 -2 -28 -11 -39 -9 -11 -13 -14 -10 -7 6 11 3 12 -13 3 -12 -6 -24 -17 -28 -24 -5 -7 0 -6 12 3 13 10 11 6 -5 -12 -13 -15 -28 -25 -34 -21 -6 3 -7 1 -4 -4 4 -6 -7 -25 -23 -43 -20 -21 -28 -26 -24 -14 4 15 4 16 -4 4 -6 -8 -11 -19 -13 -25 -1 -5 -16 -20 -33 -33 -17 -12 -34 -29 -38 -37 -5 -8 -15 -12 -25 -8 -11 4 -14 3 -9 -5 7 -11 -11 -16 -51 -15 -6 0 -10 -8 -8 -18 3 -13 -6 -23 -31 -35 -19 -9 -34 -19 -34 -23 0 -3 -9 -12 -21 -19 -14 -9 -19 -10 -14 -2 5 9 1 10 -16 5 -19 -5 -13 4 26 44 74 74 101 105 114 129 7 12 19 22 27 22 8 0 13 4 9 9 -3 6 1 13 9 18 19 10 124 150 131 174 4 11 11 19 16 19 6 0 8 4 5 9 -3 5 1 12 10 15 8 3 12 10 9 16 -3 5 -1 10 4 10 6 0 11 8 11 19 0 10 9 30 20 44 11 14 20 35 20 46 0 12 3 21 8 21 4 0 13 15 20 33 8 17 22 50 32 72 10 22 23 57 30 77 6 21 15 40 20 43 5 3 11 36 15 73 3 37 10 76 15 87 15 35 18 65 8 71 -5 3 -7 13 -3 22 22 57 26 486 7 622 -7 47 -14 103 -16 125 -1 22 -10 63 -18 90 -9 28 -21 68 -28 90 -17 57 -8 118 22 154 14 16 29 27 32 24 3 -4 6 2 6 12 0 10 13 31 30 46 16 16 27 29 24 29 -3 0 11 19 30 42 20 23 36 50 36 60 0 10 5 18 10 18 6 0 10 8 10 18 1 29 30 -34 51 -110z m-761 -2312 c0 -11 -19 -15 -25 -6 -3 5 1 10 9 10 9 0 16 -2 16 -4z" class=""></path> <path d="M4405 811 c-3 -5 -2 -12 3 -15 5 -3 9 1 9 9 0 17 -3 19 -12 6z"></path>  <path d="M2651 2734 c0 -11 3 -14 6 -6 3 7 2 16 -1 19 -3 4 -6 -2 -5 -13z"></path> <path d="M2323 2714 c-35 -38 -29 -60 7 -27 17 14 30 32 30 40 0 19 -12 15 -37 -13z"></path>  <path d="M4520 1482 c-8 -15 -14 -31 -14 -35 -1 -4 -7 -12 -15 -16 -7 -5 -10 -14 -7 -20 4 -6 0 -14 -8 -17 -9 -3 -16 -15 -16 -25 0 -10 -7 -19 -15 -19 -9 0 -12 -6 -9 -15 4 -10 0 -15 -11 -15 -11 0 -15 -5 -11 -15 3 -9 0 -15 -9 -15 -8 0 -15 -5 -15 -11 0 -6 9 -9 19 -6 13 3 18 0 15 -7 -3 -8 -17 -11 -36 -8 -22 3 -29 1 -24 -7 5 -7 -3 -22 -19 -37 -14 -13 -23 -29 -20 -34 3 -6 1 -10 -5 -10 -5 0 -25 -14 -43 -31 -17 -17 -50 -43 -72 -58 -22 -14 -51 -36 -65 -48 -14 -13 -30 -23 -37 -23 -7 0 -13 -4 -13 -10 0 -11 -148 -88 -232 -121 -79 -31 -237 -70 -298 -74 -30 -2 -86 -7 -125 -12 -38 -6 -97 -6 -130 -2 -33 4 -98 12 -145 17 -134 16 -267 48 -370 87 -52 21 -114 44 -137 53 -36 14 -47 15 -80 3 -21 -8 -40 -17 -43 -22 -3 -4 -31 -22 -62 -41 -147 -85 -208 -124 -212 -135 -10 -25 232 -144 414 -203 188 -61 433 -97 585 -86 336 23 675 172 904 398 162 160 322 417 381 610 11 37 -4 44 -20 10z m-129 -265 c-6 -6 -11 -17 -11 -25 0 -8 -16 -37 -35 -63 -19 -27 -35 -52 -35 -57 -1 -15 -61 -73 -70 -67 -6 3 -7 -1 -4 -9 3 -9 1 -16 -6 -16 -6 0 -9 -4 -5 -9 3 -5 -5 -17 -17 -25 -12 -9 -18 -16 -13 -16 4 0 -2 -11 -15 -25 -16 -17 -30 -23 -44 -19 -16 4 -18 3 -6 -5 8 -5 12 -12 10 -15 -30 -29 -136 -106 -146 -106 -8 0 -14 -7 -14 -16 0 -10 -5 -14 -16 -10 -8 3 -13 2 -11 -2 3 -4 -1 -13 -9 -20 -8 -7 -14 -10 -14 -6 0 4 -9 -1 -19 -10 -12 -11 -25 -15 -33 -10 -7 4 -10 4 -6 -1 8 -8 -20 -28 -54 -41 -10 -3 -18 -11 -18 -16 0 -5 -5 -6 -10 -3 -6 4 -17 2 -24 -4 -17 -15 -136 -61 -136 -54 0 3 -6 1 -12 -4 -15 -12 -156 -50 -213 -58 -22 -3 -51 -7 -65 -10 -47 -9 -315 -6 -318 4 -2 5 -12 6 -24 4 -11 -4 -24 0 -29 8 -7 11 -9 11 -9 1 0 -7 -4 -11 -9 -8 -4 3 -41 11 -82 17 -41 6 -76 15 -79 20 -4 5 -22 10 -42 11 -20 2 -34 7 -31 11 3 5 -3 7 -13 6 -11 -1 -35 4 -54 13 -19 8 -53 21 -75 28 -22 7 -70 27 -107 46 -38 19 -68 31 -68 28 0 -3 -7 2 -16 10 -8 9 -21 16 -28 16 -7 0 -25 11 -40 24 l-28 23 51 25 c27 14 47 29 43 33 -4 4 0 6 8 3 8 -2 23 4 34 14 11 10 26 18 33 18 8 0 12 3 10 8 -3 4 10 15 29 24 31 16 33 16 27 0 -4 -13 -2 -12 10 3 8 11 13 23 10 28 -2 4 -1 6 4 5 4 -1 18 4 31 11 26 14 56 6 165 -43 31 -14 57 -23 57 -21 0 3 18 -4 40 -15 22 -11 40 -18 40 -14 0 4 6 1 14 -5 8 -6 18 -11 22 -10 23 4 45 -2 39 -11 -3 -5 0 -7 9 -4 8 3 51 -2 96 -11 44 -9 95 -16 113 -14 18 1 40 -2 50 -6 50 -21 457 1 473 26 3 5 16 9 30 9 13 0 24 4 24 9 0 4 11 6 25 3 14 -2 25 0 25 6 0 5 28 17 62 27 34 9 68 23 75 31 8 8 23 14 34 14 11 0 29 9 41 20 12 10 25 17 30 14 4 -3 8 0 8 5 0 6 6 11 14 11 7 0 25 11 40 25 15 14 29 25 32 25 2 0 12 7 22 16 36 32 94 64 104 58 7 -5 8 -2 3 6 -6 10 -4 12 10 6 14 -5 15 -3 8 6 -8 10 -1 21 27 43 21 17 48 49 61 73 13 23 26 37 28 31 2 -6 -2 -16 -8 -22z"></path> <path d="M4159 903 c-13 -16 -12 -17 4 -4 9 7 17 15 17 17 0 8 -8 3 -21 -13z"></path> <path d="M2988 793 c7 -3 16 -2 19 1 4 3 -2 6 -13 5 -11 0 -14 -3 -6 -6z"></path> <path d="M2318 753 c7 -3 16 -2 19 1 4 3 -2 6 -13 5 -11 0 -14 -3 -6 -6z"></path>   </g> </svg>